<?xml version="1.0" encoding="UTF-8" standalone="no"?><svg xmlns="http://www.w3.org/2000/svg" xmlns:xlink="http://www.w3.org/1999/xlink" contentScriptType="application/ecmascript" contentStyleType="text/css" height="1063px" preserveAspectRatio="none" style="width:802px;height:1063px;background:#FFFFFF;" version="1.1" viewBox="0 0 802 1063" width="802px" zoomAndPan="magnify"><defs><filter height="300%" id="fh1u3wbli58oi" width="300%" x="-1" y="-1"><feGaussianBlur result="blurOut" stdDeviation="2.0"/><feColorMatrix in="blurOut" result="blurOut2" type="matrix" values="0 0 0 0 0 0 0 0 0 0 0 0 0 0 0 0 0 0 .4 0"/><feOffset dx="4.0" dy="4.0" in="blurOut2" result="blurOut3"/><feBlend in="SourceGraphic" in2="blurOut3" mode="normal"/></filter></defs><g><!--MD5=[94c941318fe8bdbe3eac2a176874632a]
class ClearConsole--><rect codeLine="3" fill="#FEFECE" filter="url(#fh1u3wbli58oi)" height="75.6719" id="ClearConsole" style="stroke:#A80036;stroke-width:1.5;" width="183" x="7" y="7"/><ellipse cx="50.35" cy="23" fill="#ADD1B2" rx="11" ry="11" style="stroke:#A80036;stroke-width:1.0;"/><path d="M53.1156,18.875 Q53.2719,18.6563 53.4594,18.5469 Q53.6469,18.4375 53.8656,18.4375 Q54.2406,18.4375 54.475,18.7031 Q54.7094,18.9531 54.7094,19.5625 L54.7094,21.0156 Q54.7094,21.625 54.475,21.8906 Q54.2406,22.1563 53.8656,22.1563 Q53.5219,22.1563 53.3188,21.9531 Q53.1156,21.7656 53.0063,21.25 Q52.9594,20.8906 52.7719,20.7031 Q52.4438,20.3281 51.8344,20.1094 Q51.225,19.8906 50.6,19.8906 Q49.8344,19.8906 49.1938,20.2188 Q48.5688,20.5469 48.0688,21.2969 Q47.5844,22.0469 47.5844,23.0781 L47.5844,24.1719 Q47.5844,25.4063 48.475,26.2344 Q49.3656,27.0469 50.9594,27.0469 Q51.8969,27.0469 52.5531,26.7969 Q52.9438,26.6406 53.3656,26.2031 Q53.6313,25.9375 53.7719,25.8594 Q53.9281,25.7813 54.1313,25.7813 Q54.4594,25.7813 54.7094,26.0469 Q54.975,26.2969 54.975,26.6406 Q54.975,26.9844 54.6313,27.3906 Q54.1313,27.9688 53.3344,28.2969 Q52.2563,28.75 50.9594,28.75 Q49.4438,28.75 48.2406,28.125 Q47.2563,27.625 46.5688,26.5625 Q45.8813,25.4844 45.8813,24.2031 L45.8813,23.0469 Q45.8813,21.7188 46.4906,20.5781 Q47.1156,19.4219 48.2094,18.8125 Q49.3031,18.1875 50.5375,18.1875 Q51.2719,18.1875 51.9125,18.3594 Q52.5688,18.5156 53.1156,18.875 Z " fill="#000000"/><ellipse cx="75.65" cy="22.5" fill="#84BE84" rx="3" ry="3" style="stroke:#038048;stroke-width:1.0;"/><text fill="#000000" font-family="sans-serif" font-size="12" lengthAdjust="spacing" textLength="77" x="81.65" y="27.9102">ClearConsole</text><line style="stroke:#A80036;stroke-width:1.5;" x1="8" x2="189" y1="39" y2="39"/><rect fill="none" height="6" style="stroke:#C82930;stroke-width:1.0;" width="6" x="15" y="47"/><text fill="#000000" font-family="sans-serif" font-size="11" lengthAdjust="spacing" text-decoration="underline" textLength="81" x="27" y="54.4189">String PACKAGE</text><line style="stroke:#A80036;stroke-width:1.5;" x1="8" x2="189" y1="60.8359" y2="60.8359"/><ellipse cx="18" cy="71.8359" fill="#84BE84" rx="3" ry="3" style="stroke:#038048;stroke-width:1.0;"/><text fill="#000000" font-family="sans-serif" font-size="11" lengthAdjust="spacing" textLength="157" x="27" y="76.2549">void logAfter (JoinPoint joinPoint)</text><!--MD5=[4ee2dd7619cddbe31222b420ffaa6afd]
class JacksonConfig--><rect codeLine="8" fill="#FEFECE" filter="url(#fh1u3wbli58oi)" height="53.8359" id="JacksonConfig" style="stroke:#A80036;stroke-width:1.5;" width="177" x="225" y="18"/><ellipse cx="263.4" cy="34" fill="#ADD1B2" rx="11" ry="11" style="stroke:#A80036;stroke-width:1.0;"/><path d="M266.1656,29.875 Q266.3219,29.6563 266.5094,29.5469 Q266.6969,29.4375 266.9156,29.4375 Q267.2906,29.4375 267.525,29.7031 Q267.7594,29.9531 267.7594,30.5625 L267.7594,32.0156 Q267.7594,32.625 267.525,32.8906 Q267.2906,33.1563 266.9156,33.1563 Q266.5719,33.1563 266.3688,32.9531 Q266.1656,32.7656 266.0563,32.25 Q266.0094,31.8906 265.8219,31.7031 Q265.4938,31.3281 264.8844,31.1094 Q264.275,30.8906 263.65,30.8906 Q262.8844,30.8906 262.2438,31.2188 Q261.6188,31.5469 261.1188,32.2969 Q260.6344,33.0469 260.6344,34.0781 L260.6344,35.1719 Q260.6344,36.4063 261.525,37.2344 Q262.4156,38.0469 264.0094,38.0469 Q264.9469,38.0469 265.6031,37.7969 Q265.9938,37.6406 266.4156,37.2031 Q266.6813,36.9375 266.8219,36.8594 Q266.9781,36.7813 267.1813,36.7813 Q267.5094,36.7813 267.7594,37.0469 Q268.025,37.2969 268.025,37.6406 Q268.025,37.9844 267.6813,38.3906 Q267.1813,38.9688 266.3844,39.2969 Q265.3063,39.75 264.0094,39.75 Q262.4938,39.75 261.2906,39.125 Q260.3063,38.625 259.6188,37.5625 Q258.9313,36.4844 258.9313,35.2031 L258.9313,34.0469 Q258.9313,32.7188 259.5406,31.5781 Q260.1656,30.4219 261.2594,29.8125 Q262.3531,29.1875 263.5875,29.1875 Q264.3219,29.1875 264.9625,29.3594 Q265.6188,29.5156 266.1656,29.875 Z " fill="#000000"/><ellipse cx="287.6" cy="33.5" fill="#84BE84" rx="3" ry="3" style="stroke:#038048;stroke-width:1.0;"/><text fill="#000000" font-family="sans-serif" font-size="12" lengthAdjust="spacing" textLength="82" x="293.6" y="38.9102">JacksonConfig</text><line style="stroke:#A80036;stroke-width:1.5;" x1="226" x2="401" y1="50" y2="50"/><ellipse cx="236" cy="61" fill="#84BE84" rx="3" ry="3" style="stroke:#038048;stroke-width:1.0;"/><text fill="#000000" font-family="sans-serif" font-size="11" lengthAdjust="spacing" textLength="151" x="245" y="65.4189">ObjectMapper jacksonBuilder ()</text><!--MD5=[e19e4703567e3401daa6107701944c65]
class GameCharacter--><rect codeLine="13" fill="#FEFECE" filter="url(#fh1u3wbli58oi)" height="214.0313" id="GameCharacter" style="stroke:#A80036;stroke-width:1.5;" width="228" x="375.5" y="723"/><ellipse cx="435.75" cy="739" fill="#A9DCDF" rx="11" ry="11" style="stroke:#A80036;stroke-width:1.0;"/><path d="M437.9375,740.7656 L433.7969,740.7656 L433.375,741.7969 L433.7969,741.7969 Q434.4063,741.7969 434.6719,742.0313 Q434.9375,742.2656 434.9375,742.6563 Q434.9375,743.0313 434.6719,743.2656 Q434.4063,743.5 433.7969,743.5 L431.5,743.5 Q430.8906,743.5 430.6406,743.2656 Q430.375,743.0313 430.375,742.6406 Q430.375,742.2656 430.6563,742.0313 Q430.9219,741.7813 431.5469,741.7969 L434.2188,735.1406 L433.1094,735.1406 Q432.5,735.1406 432.2344,734.9063 Q431.9688,734.6719 431.9688,734.2813 Q431.9688,733.9063 432.2344,733.6719 Q432.5,733.4375 433.1094,733.4375 L436.7813,733.4375 L440.1719,741.7969 Q440.7656,741.7969 440.9531,741.9375 Q441.3438,742.2031 441.3438,742.6563 Q441.3438,743.0313 441.0781,743.2656 Q440.8281,743.5 440.2188,743.5 L437.9219,743.5 Q437.3125,743.5 437.0469,743.2656 Q436.7813,743.0313 436.7813,742.6406 Q436.7813,742.2656 437.0469,742.0313 Q437.3125,741.7969 437.9219,741.7969 L438.3438,741.7969 L437.9375,740.7656 Z M437.2188,739.0625 L435.8594,735.6875 L434.4844,739.0625 L437.2188,739.0625 Z " fill="#000000"/><ellipse cx="461.25" cy="738.5" fill="#84BE84" rx="3" ry="3" style="stroke:#038048;stroke-width:1.0;"/><text fill="#000000" font-family="sans-serif" font-size="12" font-style="italic" lengthAdjust="spacing" textLength="88" x="467.25" y="743.9102">GameCharacter</text><line style="stroke:#A80036;stroke-width:1.5;" x1="376.5" x2="602.5" y1="755" y2="755"/><polygon fill="none" points="386.5,761,390.5,765,386.5,769,382.5,765" style="stroke:#B38D22;stroke-width:1.0;"/><text fill="#000000" font-family="sans-serif" font-size="11" lengthAdjust="spacing" textLength="57" x="395.5" y="770.4189">String name</text><polygon fill="none" points="386.5,774.8359,390.5,778.8359,386.5,782.8359,382.5,778.8359" style="stroke:#B38D22;stroke-width:1.0;"/><text fill="#000000" font-family="sans-serif" font-size="11" lengthAdjust="spacing" textLength="64" x="395.5" y="784.2549">Float damage</text><polygon fill="none" points="386.5,788.6719,390.5,792.6719,386.5,796.6719,382.5,792.6719" style="stroke:#B38D22;stroke-width:1.0;"/><text fill="#000000" font-family="sans-serif" font-size="11" lengthAdjust="spacing" textLength="66" x="395.5" y="798.0908">Float defense</text><polygon fill="none" points="386.5,802.5078,390.5,806.5078,386.5,810.5078,382.5,806.5078" style="stroke:#B38D22;stroke-width:1.0;"/><text fill="#000000" font-family="sans-serif" font-size="11" lengthAdjust="spacing" textLength="55" x="395.5" y="811.9268">Float health</text><polygon fill="none" points="386.5,816.3438,390.5,820.3438,386.5,824.3438,382.5,820.3438" style="stroke:#B38D22;stroke-width:1.0;"/><text fill="#000000" font-family="sans-serif" font-size="11" lengthAdjust="spacing" textLength="58" x="395.5" y="825.7627">Integer level</text><polygon fill="none" points="386.5,830.1797,390.5,834.1797,386.5,838.1797,382.5,834.1797" style="stroke:#B38D22;stroke-width:1.0;"/><text fill="#000000" font-family="sans-serif" font-size="11" lengthAdjust="spacing" textLength="54" x="395.5" y="839.5986">Integer exp</text><line style="stroke:#A80036;stroke-width:1.5;" x1="376.5" x2="602.5" y1="846.0156" y2="846.0156"/><ellipse cx="386.5" cy="857.0156" fill="#84BE84" rx="3" ry="3" style="stroke:#038048;stroke-width:1.0;"/><text fill="#000000" font-family="sans-serif" font-size="11" lengthAdjust="spacing" textLength="202" x="395.5" y="861.4346">Integer attack (GameCharacter character)</text><ellipse cx="386.5" cy="870.8516" fill="#84BE84" rx="3" ry="3" style="stroke:#038048;stroke-width:1.0;"/><text fill="#000000" font-family="sans-serif" font-size="11" lengthAdjust="spacing" textLength="123" x="395.5" y="875.2705">void levelUp (Integer exp)</text><ellipse cx="386.5" cy="884.6875" fill="#84BE84" rx="3" ry="3" style="stroke:#038048;stroke-width:1.0;"/><text fill="#000000" font-family="sans-serif" font-size="11" lengthAdjust="spacing" textLength="138" x="395.5" y="889.1064">boolean defend (int damage)</text><ellipse cx="386.5" cy="898.5234" fill="#84BE84" rx="3" ry="3" style="stroke:#038048;stroke-width:1.0;"/><text fill="#000000" font-family="sans-serif" font-size="11" lengthAdjust="spacing" textLength="91" x="395.5" y="902.9424">Float getDamage ()</text><ellipse cx="386.5" cy="912.3594" fill="#84BE84" rx="3" ry="3" style="stroke:#038048;stroke-width:1.0;"/><text fill="#000000" font-family="sans-serif" font-size="11" lengthAdjust="spacing" textLength="93" x="395.5" y="916.7783">Float getDefense ()</text><ellipse cx="386.5" cy="926.1953" fill="#84BE84" rx="3" ry="3" style="stroke:#038048;stroke-width:1.0;"/><text fill="#000000" font-family="sans-serif" font-size="11" lengthAdjust="spacing" textLength="82" x="395.5" y="930.6143">Float getHealth ()</text><polygon fill="none" points="490.3362,937.0313,497.4922,956.9759,483.4926,957.0853" style="stroke:#A80036;stroke-width:1.0;"/><line style="stroke:#A80036;stroke-width:1.0;" x1="490.4924" x2="490.5" y1="957.0306" y2="958"/><line style="stroke:#A80036;stroke-width:1.0;" x1="536.5403" x2="545.38" y1="723" y2="702.89"/><!--MD5=[96cefd8d79f96826677f0cc3fdb6b9c9]
class Mage--><rect codeLine="28" fill="#FEFECE" filter="url(#fh1u3wbli58oi)" height="32" id="Mage" style="stroke:#A80036;stroke-width:1.5;" width="73" x="346" y="1017"/><ellipse cx="361" cy="1033" fill="#ADD1B2" rx="11" ry="11" style="stroke:#A80036;stroke-width:1.0;"/><path d="M363.7656,1028.875 Q363.9219,1028.6563 364.1094,1028.5469 Q364.2969,1028.4375 364.5156,1028.4375 Q364.8906,1028.4375 365.125,1028.7031 Q365.3594,1028.9531 365.3594,1029.5625 L365.3594,1031.0156 Q365.3594,1031.625 365.125,1031.8906 Q364.8906,1032.1563 364.5156,1032.1563 Q364.1719,1032.1563 363.9688,1031.9531 Q363.7656,1031.7656 363.6563,1031.25 Q363.6094,1030.8906 363.4219,1030.7031 Q363.0938,1030.3281 362.4844,1030.1094 Q361.875,1029.8906 361.25,1029.8906 Q360.4844,1029.8906 359.8438,1030.2188 Q359.2188,1030.5469 358.7188,1031.2969 Q358.2344,1032.0469 358.2344,1033.0781 L358.2344,1034.1719 Q358.2344,1035.4063 359.125,1036.2344 Q360.0156,1037.0469 361.6094,1037.0469 Q362.5469,1037.0469 363.2031,1036.7969 Q363.5938,1036.6406 364.0156,1036.2031 Q364.2813,1035.9375 364.4219,1035.8594 Q364.5781,1035.7813 364.7813,1035.7813 Q365.1094,1035.7813 365.3594,1036.0469 Q365.625,1036.2969 365.625,1036.6406 Q365.625,1036.9844 365.2813,1037.3906 Q364.7813,1037.9688 363.9844,1038.2969 Q362.9063,1038.75 361.6094,1038.75 Q360.0938,1038.75 358.8906,1038.125 Q357.9063,1037.625 357.2188,1036.5625 Q356.5313,1035.4844 356.5313,1034.2031 L356.5313,1033.0469 Q356.5313,1031.7188 357.1406,1030.5781 Q357.7656,1029.4219 358.8594,1028.8125 Q359.9531,1028.1875 361.1875,1028.1875 Q361.9219,1028.1875 362.5625,1028.3594 Q363.2188,1028.5156 363.7656,1028.875 Z " fill="#000000"/><ellipse cx="380" cy="1032.5" fill="#84BE84" rx="3" ry="3" style="stroke:#038048;stroke-width:1.0;"/><text fill="#000000" font-family="sans-serif" font-size="12" lengthAdjust="spacing" textLength="30" x="386" y="1037.9102">Mage</text><!--MD5=[e488f30d657d483c52777ed1e30a40c3]
class Thief--><rect codeLine="33" fill="#FEFECE" filter="url(#fh1u3wbli58oi)" height="32" id="Thief" style="stroke:#A80036;stroke-width:1.5;" width="70" x="454.5" y="1017"/><ellipse cx="469.5" cy="1033" fill="#ADD1B2" rx="11" ry="11" style="stroke:#A80036;stroke-width:1.0;"/><path d="M472.2656,1028.875 Q472.4219,1028.6563 472.6094,1028.5469 Q472.7969,1028.4375 473.0156,1028.4375 Q473.3906,1028.4375 473.625,1028.7031 Q473.8594,1028.9531 473.8594,1029.5625 L473.8594,1031.0156 Q473.8594,1031.625 473.625,1031.8906 Q473.3906,1032.1563 473.0156,1032.1563 Q472.6719,1032.1563 472.4688,1031.9531 Q472.2656,1031.7656 472.1563,1031.25 Q472.1094,1030.8906 471.9219,1030.7031 Q471.5938,1030.3281 470.9844,1030.1094 Q470.375,1029.8906 469.75,1029.8906 Q468.9844,1029.8906 468.3438,1030.2188 Q467.7188,1030.5469 467.2188,1031.2969 Q466.7344,1032.0469 466.7344,1033.0781 L466.7344,1034.1719 Q466.7344,1035.4063 467.625,1036.2344 Q468.5156,1037.0469 470.1094,1037.0469 Q471.0469,1037.0469 471.7031,1036.7969 Q472.0938,1036.6406 472.5156,1036.2031 Q472.7813,1035.9375 472.9219,1035.8594 Q473.0781,1035.7813 473.2813,1035.7813 Q473.6094,1035.7813 473.8594,1036.0469 Q474.125,1036.2969 474.125,1036.6406 Q474.125,1036.9844 473.7813,1037.3906 Q473.2813,1037.9688 472.4844,1038.2969 Q471.4063,1038.75 470.1094,1038.75 Q468.5938,1038.75 467.3906,1038.125 Q466.4063,1037.625 465.7188,1036.5625 Q465.0313,1035.4844 465.0313,1034.2031 L465.0313,1033.0469 Q465.0313,1031.7188 465.6406,1030.5781 Q466.2656,1029.4219 467.3594,1028.8125 Q468.4531,1028.1875 469.6875,1028.1875 Q470.4219,1028.1875 471.0625,1028.3594 Q471.7188,1028.5156 472.2656,1028.875 Z " fill="#000000"/><ellipse cx="488.5" cy="1032.5" fill="#84BE84" rx="3" ry="3" style="stroke:#038048;stroke-width:1.0;"/><text fill="#000000" font-family="sans-serif" font-size="12" lengthAdjust="spacing" textLength="27" x="494.5" y="1037.9102">Thief</text><!--MD5=[4d0e61cd8102cff63ea9dd107048c79b]
class Warrior--><rect codeLine="38" fill="#FEFECE" filter="url(#fh1u3wbli58oi)" height="32" id="Warrior" style="stroke:#A80036;stroke-width:1.5;" width="83" x="560" y="1017"/><ellipse cx="575" cy="1033" fill="#ADD1B2" rx="11" ry="11" style="stroke:#A80036;stroke-width:1.0;"/><path d="M577.7656,1028.875 Q577.9219,1028.6563 578.1094,1028.5469 Q578.2969,1028.4375 578.5156,1028.4375 Q578.8906,1028.4375 579.125,1028.7031 Q579.3594,1028.9531 579.3594,1029.5625 L579.3594,1031.0156 Q579.3594,1031.625 579.125,1031.8906 Q578.8906,1032.1563 578.5156,1032.1563 Q578.1719,1032.1563 577.9688,1031.9531 Q577.7656,1031.7656 577.6563,1031.25 Q577.6094,1030.8906 577.4219,1030.7031 Q577.0938,1030.3281 576.4844,1030.1094 Q575.875,1029.8906 575.25,1029.8906 Q574.4844,1029.8906 573.8438,1030.2188 Q573.2188,1030.5469 572.7188,1031.2969 Q572.2344,1032.0469 572.2344,1033.0781 L572.2344,1034.1719 Q572.2344,1035.4063 573.125,1036.2344 Q574.0156,1037.0469 575.6094,1037.0469 Q576.5469,1037.0469 577.2031,1036.7969 Q577.5938,1036.6406 578.0156,1036.2031 Q578.2813,1035.9375 578.4219,1035.8594 Q578.5781,1035.7813 578.7813,1035.7813 Q579.1094,1035.7813 579.3594,1036.0469 Q579.625,1036.2969 579.625,1036.6406 Q579.625,1036.9844 579.2813,1037.3906 Q578.7813,1037.9688 577.9844,1038.2969 Q576.9063,1038.75 575.6094,1038.75 Q574.0938,1038.75 572.8906,1038.125 Q571.9063,1037.625 571.2188,1036.5625 Q570.5313,1035.4844 570.5313,1034.2031 L570.5313,1033.0469 Q570.5313,1031.7188 571.1406,1030.5781 Q571.7656,1029.4219 572.8594,1028.8125 Q573.9531,1028.1875 575.1875,1028.1875 Q575.9219,1028.1875 576.5625,1028.3594 Q577.2188,1028.5156 577.7656,1028.875 Z " fill="#000000"/><ellipse cx="594" cy="1032.5" fill="#84BE84" rx="3" ry="3" style="stroke:#038048;stroke-width:1.0;"/><text fill="#000000" font-family="sans-serif" font-size="12" lengthAdjust="spacing" textLength="40" x="600" y="1037.9102">Warrior</text><!--MD5=[84718776d214be480e4c259efcb737fc]
class Main--><rect codeLine="43" fill="#FEFECE" filter="url(#fh1u3wbli58oi)" height="89.5078" id="Main" style="stroke:#A80036;stroke-width:1.5;" width="155" x="438" y="143"/><ellipse cx="492.75" cy="159" fill="#ADD1B2" rx="11" ry="11" style="stroke:#A80036;stroke-width:1.0;"/><path d="M495.5156,154.875 Q495.6719,154.6563 495.8594,154.5469 Q496.0469,154.4375 496.2656,154.4375 Q496.6406,154.4375 496.875,154.7031 Q497.1094,154.9531 497.1094,155.5625 L497.1094,157.0156 Q497.1094,157.625 496.875,157.8906 Q496.6406,158.1563 496.2656,158.1563 Q495.9219,158.1563 495.7188,157.9531 Q495.5156,157.7656 495.4063,157.25 Q495.3594,156.8906 495.1719,156.7031 Q494.8438,156.3281 494.2344,156.1094 Q493.625,155.8906 493,155.8906 Q492.2344,155.8906 491.5938,156.2188 Q490.9688,156.5469 490.4688,157.2969 Q489.9844,158.0469 489.9844,159.0781 L489.9844,160.1719 Q489.9844,161.4063 490.875,162.2344 Q491.7656,163.0469 493.3594,163.0469 Q494.2969,163.0469 494.9531,162.7969 Q495.3438,162.6406 495.7656,162.2031 Q496.0313,161.9375 496.1719,161.8594 Q496.3281,161.7813 496.5313,161.7813 Q496.8594,161.7813 497.1094,162.0469 Q497.375,162.2969 497.375,162.6406 Q497.375,162.9844 497.0313,163.3906 Q496.5313,163.9688 495.7344,164.2969 Q494.6563,164.75 493.3594,164.75 Q491.8438,164.75 490.6406,164.125 Q489.6563,163.625 488.9688,162.5625 Q488.2813,161.4844 488.2813,160.2031 L488.2813,159.0469 Q488.2813,157.7188 488.8906,156.5781 Q489.5156,155.4219 490.6094,154.8125 Q491.7031,154.1875 492.9375,154.1875 Q493.6719,154.1875 494.3125,154.3594 Q494.9688,154.5156 495.5156,154.875 Z " fill="#000000"/><ellipse cx="518.25" cy="158.5" fill="#84BE84" rx="3" ry="3" style="stroke:#038048;stroke-width:1.0;"/><text fill="#000000" font-family="sans-serif" font-size="12" lengthAdjust="spacing" textLength="26" x="524.25" y="163.9102">Main</text><line style="stroke:#A80036;stroke-width:1.5;" x1="439" x2="592" y1="175" y2="175"/><rect fill="none" height="6" style="stroke:#C82930;stroke-width:1.0;" width="6" x="446" y="183"/><text fill="#000000" font-family="sans-serif" font-size="11" lengthAdjust="spacing" textLength="129" x="458" y="190.4189">MenuService menuService</text><line style="stroke:#A80036;stroke-width:1.5;" x1="439" x2="592" y1="196.8359" y2="196.8359"/><ellipse cx="449" cy="207.8359" fill="#84BE84" rx="3" ry="3" style="stroke:#038048;stroke-width:1.0;"/><text fill="#000000" font-family="sans-serif" font-size="11" lengthAdjust="spacing" text-decoration="underline" textLength="109" x="458" y="212.2549">void main (String args)</text><ellipse cx="449" cy="221.6719" fill="#84BE84" rx="3" ry="3" style="stroke:#038048;stroke-width:1.0;"/><text fill="#000000" font-family="sans-serif" font-size="11" lengthAdjust="spacing" textLength="103" x="458" y="226.0908">void run (String args)</text><!--MD5=[34a2344cadfb5088924753e61221cd38]
class CommandLineRunner--><rect fill="#FEFECE" filter="url(#fh1u3wbli58oi)" height="32" id="CommandLineRunner" style="stroke:#A80036;stroke-width:1.5;" width="156" x="437.5" y="29"/><ellipse cx="452.5" cy="45" fill="#B4A7E5" rx="11" ry="11" style="stroke:#A80036;stroke-width:1.0;"/><path d="M453.4531,41.6406 L453.4531,48.2969 L455.1719,48.2969 Q455.7813,48.2969 456.0469,48.5313 Q456.3125,48.7656 456.3125,49.1563 Q456.3125,49.5313 456.0469,49.7656 Q455.7813,50 455.1719,50 L450.0313,50 Q449.4219,50 449.1563,49.7656 Q448.8906,49.5313 448.8906,49.1406 Q448.8906,48.7656 449.1563,48.5313 Q449.4219,48.2969 450.0313,48.2969 L451.75,48.2969 L451.75,41.6406 L450.0313,41.6406 Q449.4219,41.6406 449.1563,41.4063 Q448.8906,41.1719 448.8906,40.7813 Q448.8906,40.4063 449.1563,40.1719 Q449.4219,39.9375 450.0313,39.9375 L455.1719,39.9375 Q455.7813,39.9375 456.0469,40.1719 Q456.3125,40.4063 456.3125,40.7813 Q456.3125,41.1719 456.0469,41.4063 Q455.7813,41.6406 455.1719,41.6406 L453.4531,41.6406 Z " fill="#000000"/><text fill="#000000" font-family="sans-serif" font-size="12" font-style="italic" lengthAdjust="spacing" textLength="124" x="466.5" y="49.9102">CommandLineRunner</text><!--MD5=[f72869ef7e3ff3293e98fb51a806b8fd]
class MenuService--><rect codeLine="55" fill="#FEFECE" filter="url(#fh1u3wbli58oi)" height="158.6875" id="MenuService" style="stroke:#A80036;stroke-width:1.5;" width="196" x="502.5" y="293"/><ellipse cx="555.75" cy="309" fill="#ADD1B2" rx="11" ry="11" style="stroke:#A80036;stroke-width:1.0;"/><path d="M558.5156,304.875 Q558.6719,304.6563 558.8594,304.5469 Q559.0469,304.4375 559.2656,304.4375 Q559.6406,304.4375 559.875,304.7031 Q560.1094,304.9531 560.1094,305.5625 L560.1094,307.0156 Q560.1094,307.625 559.875,307.8906 Q559.6406,308.1563 559.2656,308.1563 Q558.9219,308.1563 558.7188,307.9531 Q558.5156,307.7656 558.4063,307.25 Q558.3594,306.8906 558.1719,306.7031 Q557.8438,306.3281 557.2344,306.1094 Q556.625,305.8906 556,305.8906 Q555.2344,305.8906 554.5938,306.2188 Q553.9688,306.5469 553.4688,307.2969 Q552.9844,308.0469 552.9844,309.0781 L552.9844,310.1719 Q552.9844,311.4063 553.875,312.2344 Q554.7656,313.0469 556.3594,313.0469 Q557.2969,313.0469 557.9531,312.7969 Q558.3438,312.6406 558.7656,312.2031 Q559.0313,311.9375 559.1719,311.8594 Q559.3281,311.7813 559.5313,311.7813 Q559.8594,311.7813 560.1094,312.0469 Q560.375,312.2969 560.375,312.6406 Q560.375,312.9844 560.0313,313.3906 Q559.5313,313.9688 558.7344,314.2969 Q557.6563,314.75 556.3594,314.75 Q554.8438,314.75 553.6406,314.125 Q552.6563,313.625 551.9688,312.5625 Q551.2813,311.4844 551.2813,310.2031 L551.2813,309.0469 Q551.2813,307.7188 551.8906,306.5781 Q552.5156,305.4219 553.6094,304.8125 Q554.7031,304.1875 555.9375,304.1875 Q556.6719,304.1875 557.3125,304.3594 Q557.9688,304.5156 558.5156,304.875 Z " fill="#000000"/><ellipse cx="581.25" cy="308.5" fill="#84BE84" rx="3" ry="3" style="stroke:#038048;stroke-width:1.0;"/><text fill="#000000" font-family="sans-serif" font-size="12" lengthAdjust="spacing" textLength="70" x="587.25" y="313.9102">MenuService</text><line style="stroke:#A80036;stroke-width:1.5;" x1="503.5" x2="697.5" y1="325" y2="325"/><rect fill="none" height="6" style="stroke:#C82930;stroke-width:1.0;" width="6" x="510.5" y="333"/><text fill="#000000" font-family="sans-serif" font-size="11" lengthAdjust="spacing" textLength="113" x="522.5" y="340.4189">BufferedReader reader</text><rect fill="none" height="6" style="stroke:#C82930;stroke-width:1.0;" width="6" x="510.5" y="346.8359"/><text fill="#000000" font-family="sans-serif" font-size="11" lengthAdjust="spacing" textLength="126" x="522.5" y="354.2549">SaveService saveService</text><line style="stroke:#A80036;stroke-width:1.5;" x1="503.5" x2="697.5" y1="360.6719" y2="360.6719"/><ellipse cx="513.5" cy="371.6719" fill="#84BE84" rx="3" ry="3" style="stroke:#038048;stroke-width:1.0;"/><text fill="#000000" font-family="sans-serif" font-size="11" lengthAdjust="spacing" textLength="83" x="522.5" y="376.0908">void showIntro ()</text><ellipse cx="513.5" cy="385.5078" fill="#84BE84" rx="3" ry="3" style="stroke:#038048;stroke-width:1.0;"/><text fill="#000000" font-family="sans-serif" font-size="11" lengthAdjust="spacing" textLength="96" x="522.5" y="389.9268">void showIngame ()</text><rect fill="#F24D5C" height="6" style="stroke:#C82930;stroke-width:1.0;" width="6" x="510.5" y="396.3438"/><text fill="#000000" font-family="sans-serif" font-size="11" lengthAdjust="spacing" textLength="159" x="522.5" y="403.7627">void showNewCharacterMenu ()</text><rect fill="#F24D5C" height="6" style="stroke:#C82930;stroke-width:1.0;" width="6" x="510.5" y="410.1797"/><text fill="#000000" font-family="sans-serif" font-size="11" lengthAdjust="spacing" textLength="170" x="522.5" y="417.5986">boolean showOldCharacterMenu ()</text><rect fill="#F24D5C" height="6" style="stroke:#C82930;stroke-width:1.0;" width="6" x="510.5" y="424.0156"/><text fill="#000000" font-family="sans-serif" font-size="11" lengthAdjust="spacing" textLength="148" x="522.5" y="431.4346">int createMenu (String options)</text><ellipse cx="513.5" cy="440.8516" fill="#84BE84" rx="3" ry="3" style="stroke:#038048;stroke-width:1.0;"/><text fill="#000000" font-family="sans-serif" font-size="11" lengthAdjust="spacing" textLength="60" x="522.5" y="445.2705">void close ()</text><!--MD5=[f9d1d0c7be29596ca5a7cb58c7f3bac8]
class GameService--><rect codeLine="50" fill="#FEFECE" filter="url(#fh1u3wbli58oi)" height="32" id="GameService" style="stroke:#A80036;stroke-width:1.5;" width="117" x="40" y="172"/><ellipse cx="55" cy="188" fill="#ADD1B2" rx="11" ry="11" style="stroke:#A80036;stroke-width:1.0;"/><path d="M57.7656,183.875 Q57.9219,183.6563 58.1094,183.5469 Q58.2969,183.4375 58.5156,183.4375 Q58.8906,183.4375 59.125,183.7031 Q59.3594,183.9531 59.3594,184.5625 L59.3594,186.0156 Q59.3594,186.625 59.125,186.8906 Q58.8906,187.1563 58.5156,187.1563 Q58.1719,187.1563 57.9688,186.9531 Q57.7656,186.7656 57.6563,186.25 Q57.6094,185.8906 57.4219,185.7031 Q57.0938,185.3281 56.4844,185.1094 Q55.875,184.8906 55.25,184.8906 Q54.4844,184.8906 53.8438,185.2188 Q53.2188,185.5469 52.7188,186.2969 Q52.2344,187.0469 52.2344,188.0781 L52.2344,189.1719 Q52.2344,190.4063 53.125,191.2344 Q54.0156,192.0469 55.6094,192.0469 Q56.5469,192.0469 57.2031,191.7969 Q57.5938,191.6406 58.0156,191.2031 Q58.2813,190.9375 58.4219,190.8594 Q58.5781,190.7813 58.7813,190.7813 Q59.1094,190.7813 59.3594,191.0469 Q59.625,191.2969 59.625,191.6406 Q59.625,191.9844 59.2813,192.3906 Q58.7813,192.9688 57.9844,193.2969 Q56.9063,193.75 55.6094,193.75 Q54.0938,193.75 52.8906,193.125 Q51.9063,192.625 51.2188,191.5625 Q50.5313,190.4844 50.5313,189.2031 L50.5313,188.0469 Q50.5313,186.7188 51.1406,185.5781 Q51.7656,184.4219 52.8594,183.8125 Q53.9531,183.1875 55.1875,183.1875 Q55.9219,183.1875 56.5625,183.3594 Q57.2188,183.5156 57.7656,183.875 Z " fill="#000000"/><ellipse cx="74" cy="187.5" fill="#84BE84" rx="3" ry="3" style="stroke:#038048;stroke-width:1.0;"/><text fill="#000000" font-family="sans-serif" font-size="12" lengthAdjust="spacing" textLength="74" x="80" y="192.9102">GameService</text><!--MD5=[c7c826d5760f74c577bea8f7e8e38f92]
class AutoCloseable--><rect fill="#FEFECE" filter="url(#fh1u3wbli58oi)" height="32" id="AutoCloseable" style="stroke:#A80036;stroke-width:1.5;" width="114" x="628.5" y="172"/><ellipse cx="643.5" cy="188" fill="#B4A7E5" rx="11" ry="11" style="stroke:#A80036;stroke-width:1.0;"/><path d="M644.4531,184.6406 L644.4531,191.2969 L646.1719,191.2969 Q646.7813,191.2969 647.0469,191.5313 Q647.3125,191.7656 647.3125,192.1563 Q647.3125,192.5313 647.0469,192.7656 Q646.7813,193 646.1719,193 L641.0313,193 Q640.4219,193 640.1563,192.7656 Q639.8906,192.5313 639.8906,192.1406 Q639.8906,191.7656 640.1563,191.5313 Q640.4219,191.2969 641.0313,191.2969 L642.75,191.2969 L642.75,184.6406 L641.0313,184.6406 Q640.4219,184.6406 640.1563,184.4063 Q639.8906,184.1719 639.8906,183.7813 Q639.8906,183.4063 640.1563,183.1719 Q640.4219,182.9375 641.0313,182.9375 L646.1719,182.9375 Q646.7813,182.9375 647.0469,183.1719 Q647.3125,183.4063 647.3125,183.7813 Q647.3125,184.1719 647.0469,184.4063 Q646.7813,184.6406 646.1719,184.6406 L644.4531,184.6406 Z " fill="#000000"/><text fill="#000000" font-family="sans-serif" font-size="12" font-style="italic" lengthAdjust="spacing" textLength="82" x="657.5" y="192.9102">AutoCloseable</text><!--MD5=[582ef4078104a9008079182e822189f3]
class SaveService--><rect codeLine="67" fill="#FEFECE" filter="url(#fh1u3wbli58oi)" height="131.0156" id="SaveService" style="stroke:#A80036;stroke-width:1.5;" width="375" x="413" y="512"/><ellipse cx="557.25" cy="528" fill="#ADD1B2" rx="11" ry="11" style="stroke:#A80036;stroke-width:1.0;"/><path d="M560.0156,523.875 Q560.1719,523.6563 560.3594,523.5469 Q560.5469,523.4375 560.7656,523.4375 Q561.1406,523.4375 561.375,523.7031 Q561.6094,523.9531 561.6094,524.5625 L561.6094,526.0156 Q561.6094,526.625 561.375,526.8906 Q561.1406,527.1563 560.7656,527.1563 Q560.4219,527.1563 560.2188,526.9531 Q560.0156,526.7656 559.9063,526.25 Q559.8594,525.8906 559.6719,525.7031 Q559.3438,525.3281 558.7344,525.1094 Q558.125,524.8906 557.5,524.8906 Q556.7344,524.8906 556.0938,525.2188 Q555.4688,525.5469 554.9688,526.2969 Q554.4844,527.0469 554.4844,528.0781 L554.4844,529.1719 Q554.4844,530.4063 555.375,531.2344 Q556.2656,532.0469 557.8594,532.0469 Q558.7969,532.0469 559.4531,531.7969 Q559.8438,531.6406 560.2656,531.2031 Q560.5313,530.9375 560.6719,530.8594 Q560.8281,530.7813 561.0313,530.7813 Q561.3594,530.7813 561.6094,531.0469 Q561.875,531.2969 561.875,531.6406 Q561.875,531.9844 561.5313,532.3906 Q561.0313,532.9688 560.2344,533.2969 Q559.1563,533.75 557.8594,533.75 Q556.3438,533.75 555.1406,533.125 Q554.1563,532.625 553.4688,531.5625 Q552.7813,530.4844 552.7813,529.2031 L552.7813,528.0469 Q552.7813,526.7188 553.3906,525.5781 Q554.0156,524.4219 555.1094,523.8125 Q556.2031,523.1875 557.4375,523.1875 Q558.1719,523.1875 558.8125,523.3594 Q559.4688,523.5156 560.0156,523.875 Z " fill="#000000"/><ellipse cx="582.75" cy="527.5" fill="#84BE84" rx="3" ry="3" style="stroke:#038048;stroke-width:1.0;"/><text fill="#000000" font-family="sans-serif" font-size="12" lengthAdjust="spacing" textLength="67" x="588.75" y="532.9102">SaveService</text><line style="stroke:#A80036;stroke-width:1.5;" x1="414" x2="787" y1="544" y2="544"/><rect fill="none" height="6" style="stroke:#C82930;stroke-width:1.0;" width="6" x="421" y="552"/><text fill="#000000" font-family="sans-serif" font-size="11" lengthAdjust="spacing" textLength="135" x="433" y="559.4189">ObjectMapper objectMapper</text><rect fill="none" height="6" style="stroke:#C82930;stroke-width:1.0;" width="6" x="421" y="565.8359"/><text fill="#000000" font-family="sans-serif" font-size="11" lengthAdjust="spacing" textLength="156" x="433" y="573.2549">GameCharacter actualCharacter</text><line style="stroke:#A80036;stroke-width:1.5;" x1="414" x2="787" y1="579.6719" y2="579.6719"/><ellipse cx="424" cy="590.6719" fill="#84BE84" rx="3" ry="3" style="stroke:#038048;stroke-width:1.0;"/><text fill="#000000" font-family="sans-serif" font-size="11" lengthAdjust="spacing" textLength="106" x="433" y="595.0908">void saveCharacter ()</text><ellipse cx="424" cy="604.5078" fill="#84BE84" rx="3" ry="3" style="stroke:#038048;stroke-width:1.0;"/><text fill="#000000" font-family="sans-serif" font-size="11" lengthAdjust="spacing" textLength="232" x="433" y="608.9268">void saveCharacter (GameCharacter character)</text><ellipse cx="424" cy="618.3438" fill="#84BE84" rx="3" ry="3" style="stroke:#038048;stroke-width:1.0;"/><text fill="#000000" font-family="sans-serif" font-size="11" lengthAdjust="spacing" textLength="227" x="433" y="622.7627">boolean readCharacter (String characterName)</text><rect fill="#F24D5C" height="6" style="stroke:#C82930;stroke-width:1.0;" width="6" x="421" y="629.1797"/><text fill="#000000" font-family="sans-serif" font-size="11" lengthAdjust="spacing" textLength="349" x="433" y="636.5986">boolean saveCharacterFile (String characterJson,String characterName)</text><!--MD5=[71f39f61a23ac5167baf05263fdb75ba]
class ObjectMapper--><rect fill="#FEFECE" filter="url(#fh1u3wbli58oi)" height="32" id="ObjectMapper" style="stroke:#A80036;stroke-width:1.5;" width="108" x="658.5" y="814"/><ellipse cx="673.5" cy="830" fill="#ADD1B2" rx="11" ry="11" style="stroke:#A80036;stroke-width:1.0;"/><path d="M676.2656,825.875 Q676.4219,825.6563 676.6094,825.5469 Q676.7969,825.4375 677.0156,825.4375 Q677.3906,825.4375 677.625,825.7031 Q677.8594,825.9531 677.8594,826.5625 L677.8594,828.0156 Q677.8594,828.625 677.625,828.8906 Q677.3906,829.1563 677.0156,829.1563 Q676.6719,829.1563 676.4688,828.9531 Q676.2656,828.7656 676.1563,828.25 Q676.1094,827.8906 675.9219,827.7031 Q675.5938,827.3281 674.9844,827.1094 Q674.375,826.8906 673.75,826.8906 Q672.9844,826.8906 672.3438,827.2188 Q671.7188,827.5469 671.2188,828.2969 Q670.7344,829.0469 670.7344,830.0781 L670.7344,831.1719 Q670.7344,832.4063 671.625,833.2344 Q672.5156,834.0469 674.1094,834.0469 Q675.0469,834.0469 675.7031,833.7969 Q676.0938,833.6406 676.5156,833.2031 Q676.7813,832.9375 676.9219,832.8594 Q677.0781,832.7813 677.2813,832.7813 Q677.6094,832.7813 677.8594,833.0469 Q678.125,833.2969 678.125,833.6406 Q678.125,833.9844 677.7813,834.3906 Q677.2813,834.9688 676.4844,835.2969 Q675.4063,835.75 674.1094,835.75 Q672.5938,835.75 671.3906,835.125 Q670.4063,834.625 669.7188,833.5625 Q669.0313,832.4844 669.0313,831.2031 L669.0313,830.0469 Q669.0313,828.7188 669.6406,827.5781 Q670.2656,826.4219 671.3594,825.8125 Q672.4531,825.1875 673.6875,825.1875 Q674.4219,825.1875 675.0625,825.3594 Q675.7188,825.5156 676.2656,825.875 Z " fill="#000000"/><text fill="#000000" font-family="sans-serif" font-size="12" lengthAdjust="spacing" textLength="76" x="687.5" y="834.9102">ObjectMapper</text><!--MD5=[58ef580c7db23ba8dc861c24bad9fd84]
reverse link GameCharacter to Mage--><path d="M490.5,958 C490.5,958 436.21,995.2 404.62,1016.85 " fill="none" id="GameCharacter-backto-Mage" style="stroke:#A80036;stroke-width:1.0;"/><!--MD5=[0050965216ff6556872aabbcf856df9b]
reverse link GameCharacter to Thief--><path d="M490.5,958 C490.5,958 490,994.99 489.71,1016.67 " fill="none" id="GameCharacter-backto-Thief" style="stroke:#A80036;stroke-width:1.0;"/><!--MD5=[72c2f62cc8e05cb3074fa6ad4ffd1654]
reverse link GameCharacter to Warrior--><path d="M490.5,958 C490.5,958 546.3,995.2 578.77,1016.85 " fill="none" id="GameCharacter-backto-Warrior" style="stroke:#A80036;stroke-width:1.0;"/><!--MD5=[d30a6f4c9732f1286a7e2185313ffe0f]
reverse link CommandLineRunner to Main--><path d="M515.5,81.17 C515.5,99.89 515.5,123.08 515.5,142.98 " fill="none" id="CommandLineRunner-backto-Main" style="stroke:#A80036;stroke-width:1.0;stroke-dasharray:7.0,7.0;"/><polygon fill="none" points="508.5,81.09,515.5,61.09,522.5,81.09,508.5,81.09" style="stroke:#A80036;stroke-width:1.0;"/><!--MD5=[e4fd9dec55192c2549af926ca6a83849]
reverse link Main to MenuService--><path codeLine="49" d="M541.76,245.38 C548.74,260.38 556.42,276.85 563.85,292.8 " fill="none" id="Main-backto-MenuService" style="stroke:#A80036;stroke-width:1.0;"/><polygon fill="#FFFFFF" points="536.08,233.18,534.9855,240.3076,541.1438,244.0592,542.2383,236.9317,536.08,233.18" style="stroke:#A80036;stroke-width:1.0;"/><!--MD5=[8370b7a449fa8eb49c5fcc6f07a57511]
reverse link AutoCloseable to MenuService--><path d="M669.85,222.59 C660.67,242.31 648.66,268.1 637.21,292.67 " fill="none" id="AutoCloseable-backto-MenuService" style="stroke:#A80036;stroke-width:1.0;stroke-dasharray:7.0,7.0;"/><polygon fill="none" points="663.61,219.42,678.4,204.25,676.3,225.33,663.61,219.42" style="stroke:#A80036;stroke-width:1.0;"/><!--MD5=[04f142174e8adeb776cccab5894d142e]
reverse link MenuService to SaveService--><path codeLine="66" d="M600.5,465.36 C600.5,481.07 600.5,497.08 600.5,511.88 " fill="none" id="MenuService-backto-SaveService" style="stroke:#A80036;stroke-width:1.0;"/><polygon fill="#FFFFFF" points="600.5,452.28,596.5,458.28,600.5,464.28,604.5,458.28,600.5,452.28" style="stroke:#A80036;stroke-width:1.0;"/><!--MD5=[964c6592e9c837040a824d85fc07a897]
reverse link SaveService to ObjectMapper--><path codeLine="76" d="M634.75,655.11 C659.87,711.3 691.91,782.95 705.69,813.78 " fill="none" id="SaveService-backto-ObjectMapper" style="stroke:#A80036;stroke-width:1.0;"/><polygon fill="#FFFFFF" points="629.34,643.01,628.1367,650.12,634.2369,653.9654,635.4403,646.8554,629.34,643.01" style="stroke:#A80036;stroke-width:1.0;"/><!--MD5=[a8f8f5fcfffe229484fc57c421964514]
reverse link SaveService to GameCharacter--><path codeLine="77" d="M566.63,654.95 C559.88,670.16 552.64,686.52 545.38,702.89 " fill="none" id="SaveService-backto-GameCharacter" style="stroke:#A80036;stroke-width:1.0;"/><polygon fill="#FFFFFF" points="571.91,643.01,565.8209,646.8731,567.0449,653.9795,573.134,650.1165,571.91,643.01" style="stroke:#A80036;stroke-width:1.0;"/><!--MD5=[12b478b74c4b44f016cdcc3cc06620dd]
link ClearConsole to JacksonConfig--><!--MD5=[777350c54004ebaa0b73380c2aa45789]
link ClearConsole to GameService--><!--MD5=[12271b052728ad58b155375432c21628]
@startuml
hide empty members
skinparam groupInheritance 3
+class ClearConsole{
-{static}String PACKAGE

+  void logAfter (JoinPoint joinPoint)
}
+class JacksonConfig{


+  ObjectMapper jacksonBuilder ()
}
+abstract  class GameCharacter{
#String name
#Float damage
#Float defense
#Float health
#Integer level
#Integer exp

+  Integer attack (GameCharacter character)
+  void levelUp (Integer exp)
+  boolean defend (int damage)
+  Float getDamage ()
+  Float getDefense ()
+  Float getHealth ()
}
+class Mage extends GameCharacter{



}
+class Thief extends GameCharacter{



}
+class Warrior extends GameCharacter{



}
+class Main implements CommandLineRunner{
-MenuService menuService

+ {static} void main (String args)
+  void run (String args)
}
Main o- - MenuService
+class GameService{



}
+class MenuService implements AutoCloseable{
-BufferedReader reader
-SaveService saveService

+  void showIntro ()
+  void showIngame ()
-  void showNewCharacterMenu ()
-  boolean showOldCharacterMenu ()
-  int createMenu (String options)
+  void close ()
}
MenuService o- - SaveService
+class SaveService{
-ObjectMapper objectMapper
-GameCharacter actualCharacter

+  void saveCharacter ()
+  void saveCharacter (GameCharacter character)
+  boolean readCharacter (String characterName)
-  boolean saveCharacterFile (String characterJson,String characterName)
}
SaveService o- - ObjectMapper
SaveService o- - GameCharacter
@enduml

PlantUML version 1.2021.9(Sun Jul 25 12:13:56 CEST 2021)
(GPL source distribution)
Java Runtime: OpenJDK Runtime Environment
JVM: OpenJDK 64-Bit Server VM
Default Encoding: UTF-8
Language: es
Country: ES
--></g></svg>